2.2Hzlow3min_grf.mot
version=1
nRows=12
nColumns 19
inDegrees=yes
endheader
time	1_ground_force_vx	1_ground_force_vy	1_ground_force_vz	1_ground_force_px	1_ground_force_py	1_ground_force_pz	1_ground_torque_x	1_ground_torque_y	1_ground_torque_z	2_ground_force_vx	2_ground_force_vy	2_ground_force_vz	2_ground_force_px	2_ground_force_py	2_ground_force_pz	2_ground_torque_x	2_ground_torque_y	2_ground_torque_z
            0.005000	          -35.112448	          773.940862	          -12.231840	           -0.243569	            0.006285	           -0.420156	           -0.039026	            0.860194	           -0.013595	          -16.174925	          761.427302	           48.055863	           -0.261860	            0.005310	           -0.633634	           -0.050465	            2.375610	            0.149932
            0.005500	          -34.835746	          767.450564	          -12.076926	           -0.243668	            0.006285	           -0.420285	           -0.031658	            0.697447	           -0.010975	          -15.546581	          756.088948	           48.083477	           -0.261818	            0.005311	           -0.633882	           -0.047843	            2.326764	            0.147971
            0.006000	          -35.154451	          760.418599	          -11.739427	           -0.243609	            0.006285	           -0.420261	           -0.030898	            0.668346	           -0.010318	          -15.287905	          749.277622	           47.683641	           -0.261797	            0.005311	           -0.633823	           -0.050444	            2.472325	            0.157337
            0.006500	          -34.878344	          754.650150	          -11.764845	           -0.243370	            0.006285	           -0.420161	           -0.033841	            0.732197	           -0.011415	          -15.267302	          743.569078	           47.663273	           -0.261729	            0.005311	           -0.633884	           -0.052750	            2.569111	            0.164682
            0.007000	          -34.740447	          748.882855	          -12.065056	           -0.243186	            0.006285	           -0.420198	           -0.035814	            0.772021	           -0.012438	          -15.197191	          737.124017	           47.640255	           -0.261589	            0.005312	           -0.633975	           -0.055219	            2.678317	            0.173099
            0.007500	          -34.327324	          742.214254	          -12.369815	           -0.243222	            0.006286	           -0.420412	           -0.038670	            0.836105	           -0.013935	          -15.029412	          729.574618	           47.566328	           -0.261531	            0.005311	           -0.633581	           -0.054584	            2.649678	            0.172752
            0.008000	          -34.325522	          736.083980	          -12.120961	           -0.242975	            0.006285	           -0.420312	           -0.032812	            0.703637	           -0.011587	          -14.824088	          724.603481	           47.501580	           -0.261393	            0.005313	           -0.633970	           -0.053692	            2.624456	            0.172047
            0.008500	          -34.278040	          730.855197	          -11.868355	           -0.242817	            0.006285	           -0.420254	           -0.020208	            0.430869	           -0.006997	          -14.659674	          717.975181	           47.337082	           -0.261374	            0.005313	           -0.634036	           -0.053292	            2.610022	            0.172082
            0.009000	          -34.230507	          724.725128	          -11.665470	           -0.242715	            0.006285	           -0.420128	           -0.014191	            0.300447	           -0.004836	          -14.123119	          712.084797	           47.175052	           -0.261436	            0.005312	           -0.633966	           -0.052955	            2.669960	            0.176883
            0.009500	          -34.045363	          717.513750	          -11.513420	           -0.242693	            0.006286	           -0.420337	           -0.013944	            0.293883	           -0.004716	          -13.580480	          704.536250	           47.241750	           -0.261431	            0.005312	           -0.633797	           -0.051474	            2.670374	            0.179058
            0.010000	          -33.906912	          711.204902	          -11.632527	           -0.242607	            0.006286	           -0.420388	           -0.016756	            0.351454	           -0.005748	          -13.368736	          697.725424	           46.654222	           -0.261510	            0.005311	           -0.633624	           -0.053448	            2.789508	            0.186524
            0.010500	          -33.630739	          705.075861	          -11.659490	           -0.242321	            0.006286	           -0.420312	           -0.019295	            0.404533	           -0.006690	          -13.255783	          692.385666	           46.588199	           -0.261332	            0.005313	           -0.634090	           -0.053851	            2.812804	            0.189264
